HIERARCHY
ROOT Hips
{
	OFFSET 0.00000 0.00000 0.00000
	CHANNELS 6 Xposition Yposition Zposition Zrotation Yrotation Xrotation 
	JOINT LHipJoint
	{
		OFFSET 0 0 0
		CHANNELS 3 Zrotation Yrotation Xrotation
		JOINT LeftUpLeg
		{
			OFFSET 1.64577 -1.42384 0.94276
			CHANNELS 3 Zrotation Yrotation Xrotation
			JOINT LeftLeg
			{
				OFFSET 2.11538 -5.81197 0.00000
				CHANNELS 3 Zrotation Yrotation Xrotation
				JOINT LeftFoot
				{
					OFFSET 2.36541 -6.49893 0.00000
					CHANNELS 3 Zrotation Yrotation Xrotation
					JOINT LeftToeBase
					{
						OFFSET 0.17759 -0.48793 1.73865
						CHANNELS 3 Zrotation Yrotation Xrotation
						End Site
						{
							OFFSET 0.00000 -0.00000 0.91205
						}
					}
				}
			}
		}
	}
	JOINT RHipJoint
	{
		OFFSET 0 0 0
		CHANNELS 3 Zrotation Yrotation Xrotation
		JOINT RightUpLeg
		{
			OFFSET -1.43750 -1.42384 0.94276
			CHANNELS 3 Zrotation Yrotation Xrotation
			JOINT RightLeg
			{
				OFFSET -2.10480 -5.78291 0.00000
				CHANNELS 3 Zrotation Yrotation Xrotation
				JOINT RightFoot
				{
					OFFSET -2.34880 -6.45329 0.00000
					CHANNELS 3 Zrotation Yrotation Xrotation
					JOINT RightToeBase
					{
						OFFSET -0.22842 -0.62757 1.80469
						CHANNELS 3 Zrotation Yrotation Xrotation
						End Site
						{
							OFFSET -0.00000 -0.00000 0.95886
						}
					}
				}
			}
		}
	}
	JOINT LowerBack
	{
		OFFSET 0 0 0
		CHANNELS 3 Zrotation Yrotation Xrotation
		JOINT Spine
		{
			OFFSET 0.06217 1.93758 -0.49272
			CHANNELS 3 Zrotation Yrotation Xrotation
			JOINT Spine1
			{
				OFFSET -0.03114 2.03621 -0.05830
				CHANNELS 3 Zrotation Yrotation Xrotation
				JOINT Neck
				{
					OFFSET 0 0 0
					CHANNELS 3 Zrotation Yrotation Xrotation
					JOINT Neck1
					{
						OFFSET 0.04421 1.41010 0.26562
						CHANNELS 3 Zrotation Yrotation Xrotation
						JOINT Head
						{
							OFFSET -0.13407 1.43847 0.06181
							CHANNELS 3 Zrotation Yrotation Xrotation
							End Site
							{
								OFFSET -0.04980 1.45844 -0.00689
							}
						}
					}
				}
				JOINT LeftShoulder
				{
					OFFSET 0 0 0
					CHANNELS 3 Zrotation Yrotation Xrotation
					JOINT LeftArm
					{
						OFFSET 2.18382 1.47753 -0.35694
						CHANNELS 3 Zrotation Yrotation Xrotation
						JOINT LeftForeArm
						{
							OFFSET 5.05460 -0.00000 0.00000
							CHANNELS 3 Zrotation Yrotation Xrotation
							JOINT LeftHand
							{
								OFFSET 3.39013 -0.00000 0.00000
								CHANNELS 3 Zrotation Yrotation Xrotation
								JOINT LeftFingerBase
								{
									OFFSET 0 0 0
									CHANNELS 3 Zrotation Yrotation Xrotation
									JOINT LeftHandIndex1
									{
										OFFSET 0.57242 -0.00000 -0.00000
										CHANNELS 3 Zrotation Yrotation Xrotation
										End Site
										{
											OFFSET 0.46150 -0.00000 -0.00000
										}
									}
								}
								JOINT LThumb
								{
									OFFSET 0 0 0
									CHANNELS 3 Zrotation Yrotation Xrotation
									End Site
									{
										OFFSET 0.46855 -0.00000 0.46855
									}
								}
							}
						}
					}
				}
				JOINT RightShoulder
				{
					OFFSET 0 0 0
					CHANNELS 3 Zrotation Yrotation Xrotation
					JOINT RightArm
					{
						OFFSET -2.06033 1.72839 -0.47437
						CHANNELS 3 Zrotation Yrotation Xrotation
						JOINT RightForeArm
						{
							OFFSET -5.07010 -0.00000 0.00000
							CHANNELS 3 Zrotation Yrotation Xrotation
							JOINT RightHand
							{
								OFFSET -3.14957 -0.00000 -0.00000
								CHANNELS 3 Zrotation Yrotation Xrotation
								JOINT RightFingerBase
								{
									OFFSET 0 0 0
									CHANNELS 3 Zrotation Yrotation Xrotation
									JOINT RightHandIndex1
									{
										OFFSET -0.71819 -0.00000 -0.00000
										CHANNELS 3 Zrotation Yrotation Xrotation
										End Site
										{
											OFFSET -0.57902 -0.00000 -0.00000
										}
									}
								}
								JOINT RThumb
								{
									OFFSET 0 0 0
									CHANNELS 3 Zrotation Yrotation Xrotation
									End Site
									{
										OFFSET -0.58786 -0.00000 0.58786
									}
								}
							}
						}
					}
				}
			}
		}
	}
}
MOTION
Frames: 16
Frame Time: .0083333
20.6081 15.2778 0.1331 0 0 0 0 0 0 -21 0 0 0 0 0 0 0 0 0 0 0 0 0 0 21 0 0 0 0 0 0 0 0 0 0 0 0 0 0 0 0 0 0 0 0 0 0 -16 0 0 21 0 0 11 0 0 0 -8 0 0 0 0 0 0 0 0 0 0 0 0 0 0 0 0 0 0 0 0 8 0 0 0 0 0 0 0 0 0 0 0 0 0 0 0 0 0
20.6081 15.2778 0.1331 168.0930 -86.5466 -172.1420 0.0000 0.0000 0.0000 -17.1980 -12.7513 -1.1162 2.3309 9.5237 27.4475 0.8479 10.5510 -24.2204 1.2783 -7.1652 -20.2057 0.0000 0.0000 0.0000 19.6801 14.4263 -1.9793 -2.3422 -9.5451 27.5158 -1.4059 -19.6761 -36.6011 -0.9606 6.2408 -17.4847 -1.3307 1.3934 6.8772 -1.7022 1.5989 5.7953 -1.0890 0.7010 2.1406 9.2251 3.2919 -6.5949 -5.0711 3.8061 1.6466 -3.1581 1.8500 2.0157 0.0000 0.0000 0.0000 -84.3357 -3.9183 34.3556 16.1248 -25.6896 -3.6999 -0.0000 -0.0000 3.2043 21.2907 6.3625 2.4728 -7.1250 0.0000 -0.0000 -4.6121 36.7700 0.9361 0.0000 0.0000 0.0000 84.8310 1.4500 50.9894 -34.7047 44.6001 -14.6056 0.0000 -0.0000 -27.8812 -19.2781 2.1291 -0.7445 7.1250 -0.0000 -0.0000 5.6257 -27.7106 2.3751
20.6183 15.2774 0.1810 168.8500 -86.4699 -172.7950 0.0000 0.0000 0.0000 -17.5007 -13.1768 -0.9814 2.3263 9.5149 27.4198 0.8704 10.9622 -24.7754 1.1856 -6.9100 -19.4491 0.0000 0.0000 0.0000 19.5708 14.8095 -1.9001 -2.3205 -9.5040 27.3849 -1.4439 -19.6523 -36.7768 -0.9169 6.1012 -17.0782 -1.5506 1.4182 6.9098 -1.7739 1.6200 5.7507 -1.0420 0.7060 2.0726 8.9923 3.2206 -6.8409 -4.7941 3.7039 2.0209 -3.0219 1.8070 2.1619 0.0000 -0.0000 0.0000 -84.2643 -3.9215 34.3264 15.9111 -25.4000 -3.6078 -0.0000 -0.0000 3.3796 21.7213 6.3725 2.5318 -7.1250 0.0000 -0.0000 -4.2503 36.8059 0.8586 0.0000 -0.0000 0.0000 84.7711 1.1306 51.0515 -34.9946 44.8083 -14.8095 0.0000 -0.0000 -28.0080 -19.9371 1.8266 -0.6624 7.1250 -0.0000 -0.0000 5.1314 -28.0242 2.1266
20.6288 15.2808 0.2334 173.4410 -86.4561 -177.3770 0.0000 0.0000 0.0000 -17.5516 -13.6289 -0.8157 2.3298 9.5217 27.4412 0.8471 11.4278 -25.0104 1.1692 -6.8638 -19.3126 0.0000 0.0000 0.0000 19.7641 15.1344 -1.6789 -2.2900 -9.4456 27.1994 -1.4043 -19.9516 -36.8659 -0.9083 6.0733 -16.9972 -1.5673 1.4291 7.0103 -1.7307 1.6277 5.8044 -0.9904 0.7069 2.0712 8.8343 3.3542 -7.5027 -4.6249 3.8375 2.5254 -2.9244 1.8770 2.4540 0.0000 -0.0000 0.0000 -84.2817 -4.2165 34.2361 15.5822 -24.9509 -3.4678 -0.0000 -0.0000 3.7536 21.8885 6.3553 2.5464 -7.1250 0.0000 -0.0000 -4.1078 36.7973 0.8306 0.0000 -0.0000 0.0000 84.5395 0.8520 51.1225 -35.3286 45.0454 -15.0454 0.0000 -0.0000 -28.2729 -20.8271 1.7268 -0.6568 7.1250 -0.0000 -0.0000 4.4480 -28.1225 1.8313
20.6401 15.2855 0.2911 174.8860 -86.3990 -178.7560 0.0000 0.0000 0.0000 -17.7414 -13.9576 -0.7813 2.3268 9.5160 27.4231 0.8447 11.5866 -25.1385 1.0672 -6.5676 -18.4405 0.0000 0.0000 0.0000 19.6770 15.4961 -1.5654 -2.2634 -9.3945 27.0373 -1.4089 -20.0620 -36.9998 -0.8423 5.8540 -16.3615 -1.7469 1.4906 7.0553 -1.7899 1.6970 5.8191 -0.9554 0.7356 2.0590 8.8340 3.3827 -7.9049 -4.6858 3.8531 3.0587 -2.9446 1.8876 2.7137 0.0000 -0.0000 0.0000 -84.1109 -4.5403 34.6058 15.2742 -24.5267 -3.3389 -0.0000 -0.0000 3.9640 19.7375 7.2455 2.5909 -7.1250 0.0000 -0.0000 -6.0238 37.6108 1.1004 0.0000 -0.0000 0.0000 84.3833 0.6124 51.0685 -35.4744 45.1479 -15.1487 0.0000 -0.0000 -28.5475 -21.3564 2.0330 -0.7947 7.1250 -0.0000 -0.0000 4.0296 -27.7898 1.6900
20.6516 15.2887 0.3462 176.9970 -86.2994 -180.8140 0.0000 0.0000 0.0000 -17.8906 -14.2550 -0.7034 2.3217 9.5062 27.3921 0.8446 11.8142 -25.3501 0.9795 -6.3001 -17.6576 0.0000 0.0000 0.0000 19.6505 15.8558 -1.4389 -2.2355 -9.3402 26.8655 -1.3995 -20.1745 -37.0633 -0.7816 5.6441 -15.7553 -1.8894 1.5460 7.1424 -1.8417 1.7584 5.8157 -0.9347 0.7619 2.0052 8.8138 3.4326 -8.2491 -4.6652 3.8979 3.4874 -2.9314 1.9135 2.9277 0.0000 -0.0000 0.0000 -83.9542 -4.7560 34.8702 15.0112 -24.1617 -3.2305 -0.0000 -0.0000 4.1498 18.8454 7.6248 2.5930 -7.1250 0.0000 -0.0000 -6.8301 37.9499 1.1922 0.0000 -0.0000 0.0000 84.2535 0.3612 51.0532 -35.6408 45.2643 -15.2668 0.0000 -0.0000 -28.7460 -21.8257 2.0239 -0.8103 7.1250 -0.0000 -0.0000 3.6682 -27.7938 1.5375
20.6642 15.2922 0.4018 179.1150 -86.1555 -182.8890 0.0000 0.0000 0.0000 -18.0103 -14.4759 -0.6142 2.3075 9.4793 27.3063 0.8437 11.9937 -25.5116 0.8817 -5.9859 -16.7437 0.0000 0.0000 0.0000 19.6199 16.2119 -1.3391 -2.2113 -9.2930 26.7164 -1.3769 -20.2832 -37.0552 -0.7305 5.4608 -15.2276 -2.0336 1.6106 7.2500 -1.9040 1.8302 5.8123 -0.9250 0.7933 1.9403 8.8374 3.4887 -8.5097 -4.6764 3.9544 3.8356 -2.9369 1.9443 3.1031 -0.0000 0.0000 0.0000 -83.7528 -4.9527 35.2194 14.7897 -23.8524 -3.1404 -0.0000 -0.0000 4.2464 18.0686 7.9857 2.5951 -7.1250 0.0000 -0.0000 -7.5418 38.2730 1.2579 -0.0000 0.0000 0.0000 84.1354 0.1555 51.0341 -35.7510 45.3410 -15.3451 0.0000 -0.0000 -28.8879 -22.0892 1.9623 -0.7962 7.1250 -0.0000 -0.0000 3.4665 -27.8567 1.4475
20.6778 15.2963 0.4568 181.1840 -85.9590 -184.9120 0.0000 0.0000 0.0000 -18.1017 -14.6420 -0.5224 2.2879 9.4416 27.1867 0.8447 12.1492 -25.6661 0.7793 -5.6360 -15.7319 0.0000 0.0000 0.0000 19.5818 16.5471 -1.2773 -2.1878 -9.2469 26.5706 -1.3406 -20.3746 -36.9592 -0.6980 5.3406 -14.8825 -2.1890 1.6796 7.3693 -1.9712 1.9057 5.8049 -0.9150 0.8265 1.8646 8.8839 3.5376 -8.6555 -4.6993 4.0072 4.0667 -2.9511 1.9728 3.2178 0.0000 -0.0000 0.0000 -83.5229 -5.0993 35.6166 14.6275 -23.6247 -3.0751 -0.0000 -0.0000 4.2273 17.5959 8.2468 2.6046 -7.1250 0.0000 -0.0000 -7.9839 38.5105 1.2858 0.0000 -0.0000 0.0000 84.0239 0.0121 51.0362 -35.7956 45.3720 -15.3769 0.0000 -0.0000 -28.9550 -22.1325 1.8326 -0.7452 7.1250 -0.0000 -0.0000 3.4362 -27.9959 1.4235
20.6925 15.3012 0.5107 183.4440 -85.7010 -187.1170 0.0000 0.0000 0.0000 -18.1457 -14.7804 -0.4297 2.2657 9.3988 27.0509 0.8461 12.3231 -25.8426 0.6827 -5.2827 -14.7166 0.0000 0.0000 0.0000 19.5582 16.8341 -1.2644 -2.1635 -9.1987 26.4189 -1.2891 -20.4402 -36.7568 -0.6937 5.3242 -14.8357 -2.3404 1.7501 7.4867 -2.0288 1.9831 5.7974 -0.8977 0.8605 1.7895 8.9252 3.5885 -8.7149 -4.9498 4.0865 4.4194 -2.7230 1.9908 3.0116 -0.0000 0.0000 0.0000 -83.2887 -5.2018 36.0177 14.5134 -23.4639 -3.0295 -0.0000 -0.0000 4.1055 17.5135 8.3846 2.6345 -7.1250 0.0000 -0.0000 -8.0757 38.6473 1.2735 -0.0000 0.0000 0.0000 83.9116 -0.0599 51.0688 -35.7700 45.3542 -15.3586 0.0000 -0.0000 -28.9537 -21.9838 1.6623 -0.6709 7.1250 -0.0000 -0.0000 3.5555 -28.1809 1.4575
20.7079 15.3076 0.5629 186.0250 -85.3730 -189.6240 0.0000 0.0000 0.0000 -18.1221 -14.9153 -0.3465 2.2432 9.3552 26.9129 0.8476 12.5396 -26.0616 0.6120 -5.0070 -13.9285 0.0000 0.0000 0.0000 19.5652 17.0462 -1.3209 -2.1386 -9.1490 26.2627 -1.2218 -20.4697 -36.4330 -0.7279 5.4512 -15.2002 -2.4623 1.8266 7.5777 -2.0675 2.0708 5.7931 -0.8775 0.9003 1.7321 8.9678 3.6304 -8.7072 -4.9311 4.1369 4.4261 -2.7211 2.0175 3.0164 0.0000 -0.0000 0.0000 -83.0599 -5.2835 36.4086 14.4264 -23.3410 -2.9950 -0.0000 -0.0000 3.9140 17.7819 8.4027 2.6833 -7.1250 0.0000 -0.0000 -7.8494 38.6857 1.2298 0.0000 -0.0000 0.0000 83.8050 -0.0700 51.1043 -35.6829 45.2937 -15.2967 0.0000 -0.0000 -28.8997 -21.6975 1.5156 -0.6030 7.1250 -0.0000 -0.0000 3.7814 -28.3411 1.5361
20.7238 15.3160 0.6131 188.6910 -84.9777 -192.1840 0.0000 0.0000 0.0000 -18.0371 -15.0620 -0.2901 2.2220 9.3140 26.7827 0.8493 12.8058 -26.3306 0.5680 -4.8269 -13.4154 0.0000 0.0000 0.0000 19.5858 17.1651 -1.4751 -2.1149 -9.1015 26.1133 -1.1400 -20.4462 -35.9714 -0.8086 5.7388 -16.0283 -2.5509 1.9094 7.6290 -2.0877 2.1708 5.7871 -0.8567 0.9473 1.6952 9.0027 3.6693 -8.6699 -4.8776 4.1830 4.3619 -2.7085 2.0427 2.9936 0.0000 -0.0000 0.0000 -82.8397 -5.3579 36.7899 14.3472 -23.2288 -2.9637 -0.0000 -0.0000 3.6841 18.0837 8.4296 2.7406 -7.1250 0.0000 -0.0000 -7.5957 38.7356 1.1801 0.0000 -0.0000 0.0000 83.7194 -0.0404 51.1204 -35.5502 45.2010 -15.2024 0.0000 -0.0000 -28.8130 -21.3409 1.4330 -0.5598 7.1250 -0.0000 -0.0000 4.0604 -28.4326 1.6411
20.7399 15.3259 0.6613 190.9420 -84.5326 -194.2970 0.0000 0.0000 0.0000 -17.9324 -15.2107 -0.2691 2.2024 9.2755 26.6611 0.8502 13.1137 -26.6361 0.5485 -4.7446 -13.1814 0.0000 0.0000 0.0000 19.5673 17.1587 -1.7501 -2.0957 -9.0626 25.9913 -1.0485 -20.3277 -35.3465 -0.9367 6.1646 -17.2628 -2.6243 2.0006 7.6404 -2.1042 2.2852 5.7740 -0.8403 1.0021 1.6730 9.0362 3.7112 -8.6064 -4.5489 4.2143 4.0051 -2.9142 2.0830 3.2029 -0.0000 -0.0000 0.0000 -82.6224 -5.4312 37.1640 14.2605 -23.1059 -2.9296 -0.0000 -0.0000 3.4638 18.3687 8.3877 2.7730 -7.1250 0.0000 -0.0000 -7.3457 38.7128 1.1449 -0.0000 -0.0000 0.0000 83.6755 -0.0034 51.0922 -35.3991 45.0950 -15.0953 0.0000 -0.0000 -28.7205 -20.9783 1.4031 -0.5379 7.1250 -0.0000 -0.0000 4.3426 -28.4669 1.7522
20.7566 15.3368 0.7069 192.4940 -84.0613 -195.6880 0.0000 0.0000 0.0000 -17.8411 -15.3336 -0.2870 2.1833 9.2380 26.5425 0.8494 13.4325 -26.9415 0.5404 -4.7099 -13.0830 0.0000 0.0000 0.0000 19.4733 17.0192 -2.1482 -2.0847 -9.0403 25.9214 -0.9541 -20.0787 -34.5500 -1.1004 6.6657 -18.7285 -2.7054 2.1033 7.6294 -2.1272 2.4157 5.7507 -0.8270 1.0651 1.6522 9.0400 3.7502 -8.5265 -4.4176 4.2617 3.8574 -2.8659 2.1093 3.1352 -0.0000 -0.0000 0.0000 -82.4102 -5.5099 37.5175 14.1594 -22.9621 -2.8900 -0.0000 -0.0000 3.3070 18.5607 8.3887 2.8044 -7.1250 0.0000 -0.0000 -7.1815 38.7279 1.1164 -0.0000 -0.0000 0.0000 83.6782 0.0180 51.0095 -35.2582 44.9956 -14.9956 0.0000 -0.0000 -28.6483 -20.6548 1.4010 -0.5281 7.1250 -0.0000 -0.0000 4.5935 -28.4712 1.8536
20.7745 15.3480 0.7492 193.3860 -83.5884 -196.4190 0.0000 0.0000 0.0000 -17.7730 -15.4079 -0.3369 2.1638 9.1992 26.4205 0.8458 13.7255 -27.2046 0.5157 -4.6026 -12.7786 0.0000 0.0000 0.0000 19.3062 16.7753 -2.6406 -2.0851 -9.0411 25.9239 -0.8635 -19.6928 -33.6032 -1.2912 7.2000 -20.3091 -2.8105 2.2093 7.6244 -2.1536 2.5487 5.7272 -0.8042 1.1287 1.6269 9.0122 3.7957 -8.4418 -4.2645 4.3203 3.6801 -2.8035 2.1407 3.0553 0.0000 -0.0000 0.0000 -82.2163 -5.6140 37.8158 14.0430 -22.7961 -2.8447 -0.0000 -0.0000 3.2311 18.6134 8.5174 2.8557 -7.1250 0.0000 -0.0000 -7.1556 38.8661 1.0878 0.0000 -0.0000 0.0000 83.7103 0.0366 50.9028 -35.1443 44.9149 -14.9151 0.0000 -0.0000 -28.6107 -20.3796 1.4033 -0.5212 7.1250 -0.0000 -0.0000 4.8068 -28.4703 1.9403
20.7941 15.3587 0.7876 193.7690 -83.1409 -196.6620 0.0000 0.0000 0.0000 -17.7325 -15.4295 -0.4029 2.1436 9.1590 26.2939 0.8373 13.9760 -27.3904 0.4681 -4.3885 -12.1722 0.0000 0.0000 0.0000 19.0833 16.4589 -3.1813 -2.0981 -9.0675 26.0067 -0.7849 -19.1814 -32.5647 -1.5018 7.7404 -21.9283 -2.9402 2.3101 7.6494 -2.1826 2.6709 5.7145 -0.7708 1.1857 1.5952 8.9465 3.8478 -8.3612 -4.0971 4.3905 3.4778 -2.7286 2.1770 2.9666 -0.0000 0.0000 0.0000 -82.0396 -5.7511 38.0481 13.9180 -22.6174 -2.7965 -0.0000 -0.0000 3.2225 18.5382 8.7382 2.9164 -7.1250 0.0000 -0.0000 -7.2534 39.0906 1.0626 -0.0000 0.0000 0.0000 83.7583 0.0657 50.8044 -35.0743 44.8651 -14.8658 0.0000 -0.0000 -28.6148 -20.1570 1.3807 -0.5068 7.1250 -0.0000 -0.0000 4.9802 -28.4955 2.0078
20.8151 15.3682 0.8216 193.8450 -82.7408 -196.6320 0.0000 0.0000 0.0000 -17.7150 -15.4146 -0.4698 2.1236 9.1190 26.1682 0.8212 14.1852 -27.4814 0.4047 -4.0840 -11.3132 0.0000 0.0000 0.0000 18.8330 16.1063 -3.7186 -2.1227 -9.1171 26.1623 -0.7280 -18.5784 -31.5346 -1.7054 8.2234 -23.3948 -3.0849 2.3993 7.7192 -2.2113 2.7738 5.7132 -0.7293 1.2322 1.5497 8.8691 3.9122 -8.2833 -3.9458 4.4793 3.2551 -2.6565 2.2212 2.8731 0.0000 0.0000 0.0000 -81.8808 -5.9029 38.2068 13.7961 -22.4424 -2.7498 -0.0000 -0.0000 3.2675 18.4040 8.9069 2.9491 -7.1250 0.0000 -0.0000 -7.3946 39.2560 1.0533 0.0000 0.0000 0.0000 83.8100 0.1086 50.7441 -35.0496 44.8476 -14.8484 0.0000 -0.0000 -28.6605 -19.9957 1.3228 -0.4813 7.1250 -0.0000 -0.0000 5.1079 -28.5576 2.0521
